<?xml version="1.0" standalone="no"?>
<!DOCTYPE svg PUBLIC "-//W3C//DTD SVG 20010904//EN"
 "http://www.w3.org/TR/2001/REC-SVG-20010904/DTD/svg10.dtd">
<svg version="1.0" xmlns="http://www.w3.org/2000/svg"
 width="512.000000pt" height="512.000000pt" viewBox="0 0 512.000000 512.000000"
 preserveAspectRatio="xMidYMid meet">
<metadata>
Created by potrace 1.14, written by Peter Selinger 2001-2017
</metadata>
<g transform="translate(0.000000,512.000000) scale(0.100000,-0.100000)"
fill="#000000" stroke="none">
<path d="M430 5113 c-180 -30 -335 -161 -402 -339 l-23 -59 -3 -2129 c-2
-1890 -1 -2136 13 -2190 25 -100 63 -166 139 -242 80 -79 163 -125 260 -143
84 -15 4208 -15 4292 0 97 18 180 64 260 143 76 76 114 142 139 242 14 54 15
300 13 2190 l-3 2129 -23 59 c-30 81 -73 144 -135 203 -63 59 -106 86 -183
116 l-59 22 -2130 1 c-1172 1 -2141 -1 -2155 -3z m3349 -1343 c527 -54 933
-429 1038 -957 21 -106 23 -347 4 -443 -75 -382 -320 -701 -678 -882 -215
-110 -380 -149 -622 -149 -222 0 -403 43 -584 139 -304 160 -528 483 -593 852
-25 145 -15 411 20 545 101 384 405 688 826 825 130 42 205 58 335 69 132 12
144 12 254 1z m-2349 -45 c214 -45 370 -187 415 -376 52 -222 -26 -429 -217
-576 l-61 -46 39 -12 c222 -69 394 -242 451 -456 22 -84 22 -251 0 -339 -25
-95 -98 -236 -157 -303 -88 -97 -211 -175 -343 -216 -117 -36 -219 -43 -425
-30 -103 6 -327 11 -499 10 -348 -1 -343 -2 -343 67 0 68 16 78 127 85 114 6
145 16 170 54 17 26 18 80 21 951 2 626 -1 936 -8 963 -15 54 -50 70 -174 79
-87 6 -101 10 -118 29 -25 32 -23 77 5 105 l24 24 289 -5 c159 -2 332 0 384 6
124 13 326 6 420 -14z"/>
<path d="M3300 3565 c-282 -57 -474 -253 -556 -570 -21 -81 -27 -132 -31 -265
-9 -269 30 -466 131 -675 64 -131 127 -216 228 -310 152 -141 313 -209 525
-222 594 -35 955 490 836 1217 -70 427 -343 742 -714 820 -111 23 -316 26
-419 5z"/>
<path d="M1003 3570 c-46 -19 -48 -32 -51 -437 l-3 -383 94 0 c172 0 282 34
356 111 125 130 156 372 71 546 -60 122 -162 173 -343 172 -56 0 -112 -4 -124
-9z"/>
<path d="M962 2562 c-10 -7 -12 -102 -10 -468 3 -515 1 -499 76 -531 50 -21
280 -30 363 -14 167 33 268 132 310 301 19 77 16 250 -5 330 -49 182 -175 315
-345 362 -73 20 -366 35 -389 20z"/>
</g>
</svg>
